<svg xmlns="http://www.w3.org/2000/svg" viewBox="0 0 80 24" role="img" aria-label="Ramp">
  <!-- Approximate Ramp mark + wordmark for local brand placeholder -->
  <path fill="#1C1A17" d="M4.2 16.8c0-3.2 1.6-5.5 4.4-6.6 1.1-.4 2.2-.6 3.3-.6h.2v2.1h-.2c-.8 0-1.5.1-2.2.4-1.7.7-2.6 2.1-2.6 4.2 0 .4 0 .7.1 1.1H4.3c0-.2-.1-.4-.1-.6Z"/>
  <path fill="#1C1A17" d="M5.5 18.8h7.2c.6 0 1.1-.5 1.1-1.1v-.3c0-.6-.5-1.1-1.1-1.1H7.8c-1.3 0-2.3 1-2.3 2.3v.2Z"/>
  <text x="18" y="16.5" fill="#1C1A17" font-family="ui-sans-serif, system-ui, sans-serif" font-size="13" font-weight="600" letter-spacing="0.04em">ramp</text>
</svg>
