<svg width="253" height="50" viewBox="0 0 253 50" fill="none" xmlns="http://www.w3.org/2000/svg">
<path d="M246.938 49.9006C245.922 49.9006 245.005 49.6466 244.188 49.1385C243.37 48.6304 242.719 47.9567 242.233 47.1173C241.769 46.2558 241.537 45.317 241.537 44.3009C241.537 43.2847 241.769 42.357 242.233 41.5176C242.719 40.6782 243.37 40.0155 244.188 39.5295C245.027 39.0214 245.944 38.7674 246.938 38.7674C247.954 38.7674 248.871 39.0214 249.688 39.5295C250.527 40.0155 251.179 40.6782 251.643 41.5176C252.129 42.357 252.372 43.2847 252.372 44.3009C252.372 45.317 252.129 46.2558 251.643 47.1173C251.179 47.9567 250.538 48.6304 249.721 49.1385C248.904 49.6466 247.976 49.9006 246.938 49.9006Z" fill="#345B47"/>
<path d="M237.121 30.6494C237.121 31.4225 236.889 32.03 236.425 32.4718C235.983 32.8915 235.331 33.1014 234.47 33.1014H213.827V31.3452H227.114C227.931 31.3452 228.34 30.9476 228.34 30.1524C228.34 26.8389 227.81 24.3538 226.749 22.6971C225.689 21.0404 224.331 20.212 222.674 20.212C221.349 20.212 220.189 20.6317 219.195 21.4711C218.201 22.3105 217.417 23.5586 216.842 25.2153C216.29 26.85 216.014 28.8601 216.014 31.2458C216.014 35.6196 216.997 38.9109 218.963 41.1199C220.929 43.3068 223.524 44.4002 226.749 44.4002C228.848 44.4002 230.648 43.9143 232.15 42.9423C233.675 41.9704 234.713 40.6229 235.265 38.8999C235.508 38.5906 235.707 38.3918 235.861 38.3035C236.016 38.193 236.171 38.1378 236.325 38.1378C236.568 38.1378 236.745 38.2372 236.855 38.436C236.966 38.6348 237.021 38.8999 237.021 39.2312C236.911 41.2193 236.259 43.0307 235.066 44.6653C233.873 46.2999 232.272 47.6032 230.262 48.5752C228.252 49.525 225.965 50 223.403 50C220.399 50 217.737 49.3704 215.417 48.1113C213.098 46.8301 211.287 45.0408 209.983 42.7435C208.68 40.4241 208.028 37.7291 208.028 34.6587C208.028 31.3894 208.658 28.5067 209.917 26.0106C211.198 23.5144 213.021 21.5595 215.384 20.1458C217.748 18.732 220.553 18.0251 223.8 18.0251C226.562 18.0251 228.936 18.5663 230.924 19.6487C232.912 20.7311 234.437 22.2222 235.497 24.1219C236.579 26.0216 237.121 28.1974 237.121 30.6494Z" fill="#345B47"/>
<path d="M201.331 1.42478V45.328C201.331 45.8582 201.408 46.2558 201.563 46.5209C201.74 46.7639 202.005 46.9406 202.358 47.051L203.849 47.3824C204.158 47.4707 204.379 47.5922 204.512 47.7469C204.644 47.9015 204.711 48.1003 204.711 48.3433C204.711 48.6083 204.611 48.8292 204.413 49.006C204.236 49.1606 203.938 49.2379 203.518 49.2379H190.33C189.933 49.2379 189.635 49.1606 189.436 49.006C189.259 48.8292 189.171 48.6083 189.171 48.3433C189.171 48.1224 189.237 47.9346 189.369 47.78C189.524 47.6033 189.756 47.4597 190.065 47.3492L191.556 47.051C191.91 46.9406 192.164 46.7639 192.318 46.5209C192.495 46.2558 192.583 45.8582 192.583 45.328V6.09675C192.583 5.69914 192.517 5.41197 192.385 5.23525C192.252 5.05854 192.042 4.94809 191.755 4.90391L189.833 4.83764C189.568 4.79346 189.369 4.7051 189.237 4.57257C189.104 4.41794 189.038 4.23018 189.038 4.00928C189.038 3.76629 189.115 3.57853 189.27 3.44599C189.425 3.29136 189.69 3.13674 190.065 2.98211L197.587 0.596422C198.183 0.375526 198.647 0.220897 198.978 0.132537C199.31 0.0441796 199.608 0 199.873 0C200.359 0 200.724 0.132538 200.967 0.397614C201.209 0.662692 201.331 1.00508 201.331 1.42478Z" fill="#345B47"/>
<path d="M162.275 1.42478V46.1564L157.172 49.1385C156.465 49.4257 155.946 49.6134 155.615 49.7018C155.306 49.8122 154.996 49.8675 154.687 49.8675C154.356 49.8675 154.08 49.7681 153.859 49.5692C153.638 49.3704 153.527 49.0722 153.527 48.6746V6.09675C153.527 5.69914 153.461 5.41197 153.329 5.23525C153.196 5.05854 152.986 4.94809 152.699 4.90391L150.777 4.83764C150.512 4.79346 150.313 4.7051 150.181 4.57257C150.048 4.41794 149.982 4.23018 149.982 4.00928C149.982 3.76629 150.059 3.57853 150.214 3.44599C150.369 3.29136 150.634 3.13674 151.009 2.98211L158.531 0.596422C159.127 0.375526 159.591 0.220897 159.922 0.132537C160.254 0.0441796 160.552 0 160.817 0C161.303 0 161.667 0.132538 161.91 0.397614C162.153 0.662692 162.275 1.00508 162.275 1.42478ZM160.916 26.6733L159.889 25.381C161.59 22.9733 163.424 21.1509 165.389 19.9138C167.355 18.6768 169.542 18.0583 171.95 18.0583C174.468 18.0583 176.71 18.6879 178.676 19.947C180.642 21.2061 182.189 22.9733 183.315 25.2485C184.442 27.5017 185.005 30.1414 185.005 33.1677C185.005 36.5695 184.342 39.5295 183.017 42.0477C181.714 44.5659 179.925 46.5209 177.649 47.9125C175.374 49.3042 172.801 50 169.929 50C167.477 50 165.356 49.4588 163.567 48.3764C161.8 47.294 160.353 45.7477 159.226 43.7376L160.85 42.4785C161.734 44.0689 162.794 45.2728 164.031 46.0901C165.268 46.9074 166.638 47.3161 168.14 47.3161C169.62 47.3161 170.945 46.8633 172.116 45.9576C173.309 45.0519 174.247 43.6271 174.932 41.6832C175.617 39.7173 175.959 37.1769 175.959 34.0623C175.959 31.1906 175.639 28.8381 174.999 27.0046C174.358 25.1491 173.485 23.7685 172.381 22.8628C171.298 21.9571 170.039 21.5043 168.604 21.5043C167.234 21.5043 165.898 21.924 164.594 22.7634C163.291 23.6028 162.065 24.9061 160.916 26.6733Z" fill="#345B47"/>
<path d="M144.638 19.5824V45.328C144.638 45.8581 144.716 46.2557 144.87 46.5208C145.047 46.7638 145.312 46.9405 145.666 47.051L147.124 47.3823C147.433 47.4707 147.654 47.5922 147.786 47.7468C147.941 47.9014 148.018 48.1002 148.018 48.3432C148.018 48.6083 147.919 48.8292 147.72 49.0059C147.521 49.1605 147.212 49.2378 146.792 49.2378H133.638C133.24 49.2378 132.942 49.1605 132.743 49.0059C132.544 48.8292 132.445 48.6083 132.445 48.3432C132.445 48.1223 132.511 47.9345 132.644 47.7799C132.798 47.6253 133.019 47.4928 133.306 47.3823L134.864 47.051C135.217 46.9405 135.471 46.7638 135.626 46.5208C135.781 46.2557 135.858 45.8581 135.858 45.328V24.2544C135.858 23.8568 135.792 23.5696 135.659 23.3929C135.549 23.2162 135.339 23.1168 135.029 23.0947L133.141 22.9953C132.854 22.9511 132.644 22.8628 132.511 22.7302C132.401 22.5756 132.346 22.3989 132.346 22.2001C132.346 21.935 132.423 21.7362 132.578 21.6036C132.732 21.449 132.997 21.2944 133.373 21.1398L140.861 18.7541C141.458 18.5332 141.921 18.3785 142.253 18.2902C142.606 18.2018 142.915 18.1577 143.181 18.1577C143.667 18.1577 144.031 18.2902 144.274 18.5553C144.517 18.8203 144.638 19.1627 144.638 19.5824ZM139.735 13.4526C138.122 13.4526 136.819 12.9997 135.825 12.094C134.853 11.1663 134.367 9.99551 134.367 8.58177C134.367 7.14594 134.853 5.97519 135.825 5.06951C136.819 4.16384 138.122 3.711 139.735 3.711C141.369 3.711 142.684 4.16384 143.678 5.06951C144.694 5.97519 145.202 7.14594 145.202 8.58177C145.202 9.99551 144.694 11.1663 143.678 12.094C142.684 12.9997 141.369 13.4526 139.735 13.4526Z" fill="#345B47"/>
<path d="M117.125 44.4003L116.927 44.2346V6.09675C116.927 5.69914 116.86 5.41197 116.728 5.23525C116.617 5.05854 116.407 4.94809 116.098 4.90391L114.21 4.83764C113.922 4.79346 113.713 4.7051 113.58 4.57257C113.47 4.41794 113.414 4.23018 113.414 4.00928C113.414 3.76629 113.481 3.57853 113.613 3.44599C113.768 3.29136 114.044 3.13674 114.441 2.98211L121.93 0.596422C122.504 0.375526 122.957 0.220897 123.288 0.132537C123.642 0.0441796 123.973 0 124.282 0C124.746 0 125.1 0.132538 125.343 0.397614C125.586 0.662692 125.707 1.00508 125.707 1.42478V45.328C125.707 45.8582 125.785 46.2558 125.939 46.5209C126.116 46.7639 126.381 46.9406 126.734 47.051L128.192 47.3824C128.502 47.4707 128.722 47.5922 128.855 47.7469C129.01 47.9015 129.087 48.1003 129.087 48.3433C129.087 48.6083 128.988 48.8292 128.789 49.006C128.59 49.1606 128.281 49.2379 127.861 49.2379H119.876C119.08 49.2379 118.418 48.9839 117.887 48.4758C117.379 47.9678 117.125 47.294 117.125 46.4546V44.4003ZM94.1963 34.8575C94.1963 31.4336 94.87 28.4626 96.2175 25.9443C97.565 23.4261 99.3763 21.4822 101.652 20.1127C103.927 18.7431 106.467 18.0583 109.272 18.0583C111.724 18.0583 113.834 18.5995 115.601 19.6819C117.39 20.7422 118.848 22.2774 119.975 24.2876L118.384 25.5467C117.479 23.9784 116.407 22.7855 115.17 21.9682C113.933 21.1288 112.553 20.7091 111.029 20.7091C109.549 20.7091 108.223 21.1619 107.052 22.0676C105.882 22.9733 104.954 24.4091 104.269 26.3751C103.584 28.319 103.242 30.8482 103.242 33.9629C103.242 36.8125 103.551 39.165 104.17 41.0205C104.81 42.854 105.683 44.2235 106.787 45.1292C107.914 46.0349 109.184 46.4877 110.598 46.4877C111.99 46.4877 113.337 46.0791 114.64 45.2618C115.944 44.4224 117.159 43.1301 118.285 41.385L119.312 42.6773C117.633 45.063 115.811 46.8854 113.845 48.1445C111.879 49.3815 109.692 50 107.284 50C104.766 50 102.513 49.3704 100.525 48.1113C98.559 46.8301 97.0127 45.063 95.8862 42.8098C94.7596 40.5346 94.1963 37.8838 94.1963 34.8575Z" fill="#345B47"/>
<path d="M90.4096 30.6494C90.4096 31.4225 90.1777 32.03 89.7138 32.4718C89.272 32.8915 88.6204 33.1014 87.7589 33.1014H67.1161V31.3452H80.403C81.2203 31.3452 81.629 30.9476 81.629 30.1524C81.629 26.8389 81.0988 24.3538 80.0385 22.6971C78.9782 21.0404 77.6197 20.212 75.963 20.212C74.6376 20.212 73.4779 20.6317 72.4838 21.4711C71.4898 22.3105 70.7056 23.5586 70.1313 25.2153C69.579 26.85 69.3029 28.8601 69.3029 31.2458C69.3029 35.6196 70.2859 38.9109 72.2519 41.1199C74.2179 43.3068 76.8134 44.4002 80.0385 44.4002C82.137 44.4002 83.9373 43.9143 85.4394 42.9423C86.9636 41.9704 88.0018 40.6229 88.5541 38.8999C88.7971 38.5906 88.9959 38.3918 89.1505 38.3035C89.3051 38.193 89.4598 38.1378 89.6144 38.1378C89.8574 38.1378 90.0341 38.2372 90.1445 38.436C90.255 38.6348 90.3102 38.8999 90.3102 39.2312C90.1998 41.2193 89.5481 43.0307 88.3553 44.6653C87.1624 46.2999 85.5609 47.6032 83.5508 48.5752C81.5406 49.525 79.2543 50 76.6919 50C73.6877 50 71.0259 49.3704 68.7065 48.1113C66.3871 46.8301 64.5757 45.0408 63.2724 42.7435C61.9692 40.4241 61.3175 37.7291 61.3175 34.6587C61.3175 31.3894 61.9471 28.5067 63.2062 26.0106C64.4874 23.5144 66.3098 21.5595 68.6734 20.1458C71.037 18.732 73.8424 18.0251 77.0895 18.0251C79.8508 18.0251 82.2254 18.5663 84.2135 19.6487C86.2015 20.7311 87.7257 22.2222 88.786 24.1219C89.8684 26.0216 90.4096 28.1974 90.4096 30.6494Z" fill="#345B47"/>
<path d="M43.4011 32.1073C43.4011 29.0148 43.8429 26.4303 44.7265 24.3538C45.6101 22.2553 46.7588 20.687 48.1725 19.6487C49.5862 18.5884 51.0883 18.0583 52.6788 18.0583C54.6006 18.0583 56.0806 18.6216 57.1188 19.7481C58.157 20.8747 58.6762 22.4873 58.6762 24.5858C58.6762 26.4192 58.2785 27.7998 57.4833 28.7276C56.6881 29.6333 55.672 30.0861 54.4349 30.0861C53.22 30.0861 52.2922 29.7548 51.6516 29.0921C51.0331 28.4294 50.7128 27.4795 50.6907 26.2425V25.0828C50.6686 24.398 50.503 23.89 50.1937 23.5586C49.9066 23.2052 49.4316 23.0285 48.7689 23.0285C48.0179 23.0285 47.3 23.3598 46.6152 24.0225C45.9304 24.6631 45.3671 25.6571 44.9253 27.0046C44.5056 28.33 44.2958 30.0199 44.2958 32.0742L43.4011 32.1073ZM43.9644 19.6819L44.2958 28.5951V45.2286C44.2958 45.7146 44.3952 46.0901 44.594 46.3552C44.7928 46.5982 45.1462 46.7638 45.6543 46.8522L48.6695 47.3161C49.023 47.3823 49.277 47.4928 49.4316 47.6474C49.6083 47.8021 49.6967 48.0229 49.6967 48.3101C49.6967 48.5973 49.5862 48.8292 49.3654 49.0059C49.1665 49.1606 48.8683 49.2379 48.4707 49.2379H33.3282C32.9085 49.2379 32.5993 49.1606 32.4005 49.0059C32.2017 48.8292 32.1023 48.5973 32.1023 48.3101C32.1023 48.0892 32.1685 47.9015 32.3011 47.7468C32.4557 47.5922 32.6876 47.4597 32.9969 47.3492L34.488 47.051C34.8635 46.9406 35.1285 46.7638 35.2832 46.5208C35.4378 46.2558 35.5151 45.8802 35.5151 45.3943V24.2544C35.5151 23.8568 35.4489 23.5697 35.3163 23.3929C35.2059 23.1941 35.0071 23.0837 34.7199 23.0616L32.765 22.9622C32.4999 22.918 32.3011 22.8297 32.1685 22.6971C32.036 22.5425 31.9697 22.3658 31.9697 22.167C31.9697 21.924 32.047 21.7252 32.2017 21.5706C32.3563 21.3938 32.6324 21.2392 33.03 21.1067L40.4522 18.8867C41.159 18.6216 41.6781 18.4559 42.0095 18.3896C42.3629 18.3013 42.6501 18.2571 42.871 18.2571C43.2023 18.2571 43.4453 18.3786 43.5999 18.6216C43.7767 18.8425 43.8982 19.1959 43.9644 19.6819Z" fill="#345B47"/>
<path d="M28.33 26.6401C28.33 27.8551 27.9324 28.8712 27.1372 29.6885C26.3419 30.4837 25.2706 30.8813 23.9231 30.8813C22.5977 30.8813 21.5706 30.4948 20.8416 29.7216C20.1347 28.9485 19.7813 27.9103 19.7813 26.607V25.0165C19.7813 23.5586 19.3506 22.3989 18.4891 21.5374C17.6497 20.6759 16.501 20.2452 15.0431 20.2452C13.6956 20.2452 12.4917 20.687 11.4314 21.5705C10.3932 22.432 9.57588 23.6801 8.97946 25.3147C8.38304 26.9273 8.08483 28.8491 8.08483 31.0802C8.08483 33.9297 8.52662 36.3265 9.41021 38.2703C10.3159 40.2142 11.5529 41.6832 13.1213 42.6772C14.6896 43.6713 16.4789 44.1683 18.4891 44.1683C20.4109 44.1683 22.0786 43.7596 23.4924 42.9423C24.9282 42.125 25.9885 40.9101 26.6733 39.2975C26.9163 39.0104 27.1151 38.8115 27.2697 38.7011C27.4243 38.5906 27.59 38.5354 27.7667 38.5354C28.0097 38.5354 28.1754 38.6459 28.2638 38.8668C28.3742 39.0656 28.4184 39.3196 28.3963 39.6289C28.1754 41.639 27.4685 43.4283 26.2757 44.9967C25.1049 46.5429 23.5587 47.7579 21.6368 48.6415C19.7371 49.525 17.5503 49.9668 15.0762 49.9668C12.1604 49.9668 9.56483 49.3594 7.2896 48.1444C5.03645 46.9074 3.25823 45.1513 1.95494 42.876C0.651646 40.5787 0 37.8396 0 34.6587C0 31.5219 0.66269 28.7055 1.98807 26.2094C3.33554 23.6912 5.21317 21.7031 7.62094 20.2452C10.0287 18.7652 12.8341 18.0251 16.0371 18.0251C18.6216 18.0251 20.8195 18.4117 22.6309 19.1849C24.4643 19.958 25.867 20.9962 26.839 22.2995C27.833 23.6028 28.33 25.0497 28.33 26.6401Z" fill="#345B47"/>
</svg>
